<svg width="200" height="200" viewBox="0 0 200 200" fill="none" xmlns="http://www.w3.org/2000/svg">
<path d="M100 200C155.228 200 200 155.228 200 100C200 44.7715 155.228 0 100 0C44.7715 0 0 44.7715 0 100C0 155.228 44.7715 200 100 200Z" fill="black"/>
<path d="M129.95 56.6315C126.463 51.9435 121.891 48.1632 116.623 45.6118C111.584 43.2336 106.077 42 100.5 42C94.9233 42 89.4163 43.2336 84.3766 45.6118C79.105 48.1628 74.5292 51.943 71.0378 56.6315C67.0063 62.135 64.019 68.3262 62.2231 74.8997C59.9407 83.2769 58.8604 91.9336 59.0144 100.612C58.8654 109.267 59.9457 117.898 62.2231 126.252C64.0151 132.821 67.0074 139.006 71.0501 144.495C74.5435 149.163 79.1203 152.919 84.3889 155.442C89.4339 157.785 94.9331 159 100.5 159C106.067 159 111.566 157.785 116.611 155.442C121.875 152.913 126.451 149.158 129.95 144.495C133.985 139.002 136.977 132.818 138.777 126.252C141.053 117.898 142.133 109.267 141.986 100.612C142.14 91.9336 141.059 83.2769 138.777 74.8997C136.977 68.3254 133.985 62.1342 129.95 56.6315ZM100.445 152.478C95.8543 152.496 91.3193 151.479 87.1796 149.503C83.2652 147.583 79.8234 144.828 77.0987 141.434L126.852 64.1616C129.138 68.1527 130.909 72.4145 132.126 76.8465C134.161 84.5808 135.121 92.5568 134.978 100.551C135.122 108.541 134.162 116.514 132.126 124.244C130.617 130.032 128.059 135.497 124.577 140.369C121.749 144.243 118.02 147.377 113.71 149.503C109.589 151.482 105.069 152.5 100.494 152.478H100.445ZM68.6774 124.244C66.6373 116.514 65.6734 108.542 65.8129 100.551C65.6735 92.5563 66.6374 84.5802 68.6774 76.8465C70.207 71.0411 72.7902 65.5635 76.2996 60.6843C80.4651 55.0324 86.4888 51.0143 93.3222 49.3297C100.156 47.6451 107.366 48.4005 113.697 51.4645C117.286 53.2477 120.466 55.7486 123.041 58.8109L73.4105 135.949C71.3888 132.24 69.8007 128.313 68.6774 124.244Z" fill="white"/>
</svg>
